<svg width="48" height="49" viewBox="0 0 48 49" fill="none" xmlns="http://www.w3.org/2000/svg">
<path d="M14.1531 39.3211C6.87227 30.7316 11.7398 9.00291 14.8076 9.00291C8.83565 8.87534 -1.22666 12.9149 0.123159 27.4574C1.80021 40.9794 13.6623 50.5043 26.6288 48.8035C30.76 48.2507 34.6868 46.5923 38 43.956C26.5879 52.4178 18.8571 44.8489 14.1531 39.3211Z" fill="url(#paint0_linear)"/>
<path d="M41.4519 25.0049C35.23 37.5917 16.1861 42.8646 14 39.5903C17.7415 45.0757 26.9482 52.7299 38.5932 44.1402C49.1871 35.8483 51.121 20.4124 42.9233 9.65413C40.3168 6.29482 36.8275 3.65839 32.8758 2C46.0342 7.91069 44.6889 18.4139 41.4519 25.0049Z" fill="url(#paint1_linear)"/>
<path d="M15.1097 9.11669C28.4276 7.66741 43.4935 21.6487 41.579 24.8883C45.3247 18.3665 46.1987 7.75266 33.1721 1.82765C20.8114 -3.33009 6.74438 2.80805 1.75016 15.468C0.168661 19.4322 -0.33076 23.7374 0.21028 28C-0.705327 13.5072 10.1571 9.62821 15.1097 9.11669Z" fill="url(#paint2_linear)"/>
<defs>
<linearGradient id="paint0_linear" x1="4.98305" y1="12.2616" x2="27.8124" y2="50.3016" gradientUnits="userSpaceOnUse">
<stop stop-color="#498A63"/>
<stop offset="0.25" stop-color="#61B984"/>
</linearGradient>
<linearGradient id="paint1_linear" x1="22.1605" y1="46.8261" x2="45.4697" y2="9.4652" gradientUnits="userSpaceOnUse">
<stop stop-color="#89356D"/>
<stop offset="0.21" stop-color="#B94794"/>
</linearGradient>
<linearGradient id="paint2_linear" x1="3.66183" y1="10.0393" x2="42.299" y2="23.7749" gradientUnits="userSpaceOnUse">
<stop offset="0.6" stop-color="#F59C1C"/>
<stop offset="1" stop-color="#C7702B"/>
</linearGradient>
</defs>
</svg>
